<mxfile host="app.diagrams.net" modified="2021-10-19T07:19:01.548Z" agent="5.0 (Windows NT 10.0; Win64; x64) AppleWebKit/537.36 (KHTML, like Gecko) Chrome/94.0.4606.81 Safari/537.36" etag="SQV-coabsG173QlhAzl1" version="15.5.4" type="github">
  <diagram id="R2lEEEUBdFMjLlhIrx00" name="Page-1">
    <mxGraphModel dx="1209" dy="626" grid="1" gridSize="10" guides="1" tooltips="1" connect="1" arrows="1" fold="1" page="1" pageScale="1" pageWidth="850" pageHeight="1100" math="0" shadow="0" extFonts="Permanent Marker^https://fonts.googleapis.com/css?family=Permanent+Marker">
      <root>
        <mxCell id="0" />
        <mxCell id="1" parent="0" />
        <mxCell id="p0b-y2tVaeS5qUjQDXH8-1" value="Kendaraan" style="swimlane;fontStyle=0;childLayout=stackLayout;horizontal=1;startSize=26;horizontalStack=0;resizeParent=1;resizeParentMax=0;resizeLast=0;collapsible=1;marginBottom=0;align=center;fontSize=14;" vertex="1" parent="1">
          <mxGeometry x="242" y="40" width="160" height="176" as="geometry" />
        </mxCell>
        <mxCell id="p0b-y2tVaeS5qUjQDXH8-2" value="Plat_nomor" style="text;strokeColor=none;fillColor=none;spacingLeft=4;spacingRight=4;overflow=hidden;rotatable=0;points=[[0,0.5],[1,0.5]];portConstraint=eastwest;fontSize=12;fontStyle=4" vertex="1" parent="p0b-y2tVaeS5qUjQDXH8-1">
          <mxGeometry y="26" width="160" height="30" as="geometry" />
        </mxCell>
        <mxCell id="p0b-y2tVaeS5qUjQDXH8-3" value="Tahun_pembuatan" style="text;strokeColor=none;fillColor=none;spacingLeft=4;spacingRight=4;overflow=hidden;rotatable=0;points=[[0,0.5],[1,0.5]];portConstraint=eastwest;fontSize=12;" vertex="1" parent="p0b-y2tVaeS5qUjQDXH8-1">
          <mxGeometry y="56" width="160" height="30" as="geometry" />
        </mxCell>
        <mxCell id="p0b-y2tVaeS5qUjQDXH8-4" value="Model" style="text;strokeColor=none;fillColor=none;spacingLeft=4;spacingRight=4;overflow=hidden;rotatable=0;points=[[0,0.5],[1,0.5]];portConstraint=eastwest;fontSize=12;" vertex="1" parent="p0b-y2tVaeS5qUjQDXH8-1">
          <mxGeometry y="86" width="160" height="30" as="geometry" />
        </mxCell>
        <mxCell id="p0b-y2tVaeS5qUjQDXH8-5" value="Tahun_kepemilikan" style="text;strokeColor=none;fillColor=none;spacingLeft=4;spacingRight=4;overflow=hidden;rotatable=0;points=[[0,0.5],[1,0.5]];portConstraint=eastwest;fontSize=12;" vertex="1" parent="p0b-y2tVaeS5qUjQDXH8-1">
          <mxGeometry y="116" width="160" height="30" as="geometry" />
        </mxCell>
        <mxCell id="p0b-y2tVaeS5qUjQDXH8-6" value="Warna kendaraan" style="text;strokeColor=none;fillColor=none;spacingLeft=4;spacingRight=4;overflow=hidden;rotatable=0;points=[[0,0.5],[1,0.5]];portConstraint=eastwest;fontSize=12;" vertex="1" parent="p0b-y2tVaeS5qUjQDXH8-1">
          <mxGeometry y="146" width="160" height="30" as="geometry" />
        </mxCell>
        <mxCell id="p0b-y2tVaeS5qUjQDXH8-7" value="Compact" style="swimlane;fontStyle=0;childLayout=stackLayout;horizontal=1;startSize=26;horizontalStack=0;resizeParent=1;resizeParentMax=0;resizeLast=0;collapsible=1;marginBottom=0;align=center;fontSize=14;" vertex="1" parent="1">
          <mxGeometry x="40" y="360" width="160" height="56" as="geometry" />
        </mxCell>
        <mxCell id="p0b-y2tVaeS5qUjQDXH8-11" value="Mid-size" style="swimlane;fontStyle=0;childLayout=stackLayout;horizontal=1;startSize=26;horizontalStack=0;resizeParent=1;resizeParentMax=0;resizeLast=0;collapsible=1;marginBottom=0;align=center;fontSize=14;" vertex="1" parent="1">
          <mxGeometry x="230" y="360" width="160" height="56" as="geometry" />
        </mxCell>
        <mxCell id="p0b-y2tVaeS5qUjQDXH8-12" value="Full-size" style="swimlane;fontStyle=0;childLayout=stackLayout;horizontal=1;startSize=26;horizontalStack=0;resizeParent=1;resizeParentMax=0;resizeLast=0;collapsible=1;marginBottom=0;align=center;fontSize=14;" vertex="1" parent="1">
          <mxGeometry x="420" y="360" width="160" height="56" as="geometry" />
        </mxCell>
        <mxCell id="p0b-y2tVaeS5qUjQDXH8-13" value="Sport Utility" style="swimlane;fontStyle=0;childLayout=stackLayout;horizontal=1;startSize=26;horizontalStack=0;resizeParent=1;resizeParentMax=0;resizeLast=0;collapsible=1;marginBottom=0;align=center;fontSize=14;" vertex="1" parent="1">
          <mxGeometry x="610" y="360" width="160" height="56" as="geometry" />
        </mxCell>
        <mxCell id="p0b-y2tVaeS5qUjQDXH8-14" value="Pelanggan" style="swimlane;fontStyle=0;childLayout=stackLayout;horizontal=1;startSize=26;horizontalStack=0;resizeParent=1;resizeParentMax=0;resizeLast=0;collapsible=1;marginBottom=0;align=center;fontSize=14;" vertex="1" parent="1">
          <mxGeometry x="612" y="59" width="160" height="146" as="geometry" />
        </mxCell>
        <mxCell id="p0b-y2tVaeS5qUjQDXH8-15" value="Kode" style="text;strokeColor=none;fillColor=none;spacingLeft=4;spacingRight=4;overflow=hidden;rotatable=0;points=[[0,0.5],[1,0.5]];portConstraint=eastwest;fontSize=12;fontStyle=4" vertex="1" parent="p0b-y2tVaeS5qUjQDXH8-14">
          <mxGeometry y="26" width="160" height="30" as="geometry" />
        </mxCell>
        <mxCell id="p0b-y2tVaeS5qUjQDXH8-16" value="Nama" style="text;strokeColor=none;fillColor=none;spacingLeft=4;spacingRight=4;overflow=hidden;rotatable=0;points=[[0,0.5],[1,0.5]];portConstraint=eastwest;fontSize=12;" vertex="1" parent="p0b-y2tVaeS5qUjQDXH8-14">
          <mxGeometry y="56" width="160" height="30" as="geometry" />
        </mxCell>
        <mxCell id="p0b-y2tVaeS5qUjQDXH8-17" value="AlamatÂ " style="text;strokeColor=none;fillColor=none;spacingLeft=4;spacingRight=4;overflow=hidden;rotatable=0;points=[[0,0.5],[1,0.5]];portConstraint=eastwest;fontSize=12;" vertex="1" parent="p0b-y2tVaeS5qUjQDXH8-14">
          <mxGeometry y="86" width="160" height="30" as="geometry" />
        </mxCell>
        <mxCell id="p0b-y2tVaeS5qUjQDXH8-18" value="Email" style="text;strokeColor=none;fillColor=none;spacingLeft=4;spacingRight=4;overflow=hidden;rotatable=0;points=[[0,0.5],[1,0.5]];portConstraint=eastwest;fontSize=12;" vertex="1" parent="p0b-y2tVaeS5qUjQDXH8-14">
          <mxGeometry y="116" width="160" height="30" as="geometry" />
        </mxCell>
        <mxCell id="p0b-y2tVaeS5qUjQDXH8-24" style="edgeStyle=orthogonalEdgeStyle;rounded=0;orthogonalLoop=1;jettySize=auto;html=1;exitX=0;exitY=0.5;exitDx=0;exitDy=0;entryX=1.015;entryY=0.07;entryDx=0;entryDy=0;entryPerimeter=0;endArrow=none;endFill=0;" edge="1" parent="1" source="p0b-y2tVaeS5qUjQDXH8-20" target="p0b-y2tVaeS5qUjQDXH8-4">
          <mxGeometry relative="1" as="geometry">
            <Array as="points">
              <mxPoint x="404" y="130" />
            </Array>
          </mxGeometry>
        </mxCell>
        <mxCell id="p0b-y2tVaeS5qUjQDXH8-20" value="Peminjaman" style="shape=rhombus;perimeter=rhombusPerimeter;whiteSpace=wrap;html=1;align=center;" vertex="1" parent="1">
          <mxGeometry x="442" y="100" width="120" height="60" as="geometry" />
        </mxCell>
        <mxCell id="p0b-y2tVaeS5qUjQDXH8-23" style="edgeStyle=orthogonalEdgeStyle;rounded=0;orthogonalLoop=1;jettySize=auto;html=1;exitX=1;exitY=0.5;exitDx=0;exitDy=0;entryX=0;entryY=0.5;entryDx=0;entryDy=0;endArrow=classic;endFill=1;" edge="1" parent="1" source="p0b-y2tVaeS5qUjQDXH8-20" target="p0b-y2tVaeS5qUjQDXH8-16">
          <mxGeometry relative="1" as="geometry" />
        </mxCell>
        <mxCell id="p0b-y2tVaeS5qUjQDXH8-26" style="edgeStyle=orthogonalEdgeStyle;rounded=0;orthogonalLoop=1;jettySize=auto;html=1;exitX=0.5;exitY=0;exitDx=0;exitDy=0;entryX=0.5;entryY=0;entryDx=0;entryDy=0;endArrow=none;endFill=0;" edge="1" parent="1" source="p0b-y2tVaeS5qUjQDXH8-25" target="p0b-y2tVaeS5qUjQDXH8-7">
          <mxGeometry relative="1" as="geometry" />
        </mxCell>
        <mxCell id="p0b-y2tVaeS5qUjQDXH8-27" style="edgeStyle=orthogonalEdgeStyle;rounded=0;orthogonalLoop=1;jettySize=auto;html=1;exitX=0;exitY=0.25;exitDx=0;exitDy=0;entryX=0.5;entryY=0;entryDx=0;entryDy=0;endArrow=none;endFill=0;" edge="1" parent="1" source="p0b-y2tVaeS5qUjQDXH8-25" target="p0b-y2tVaeS5qUjQDXH8-11">
          <mxGeometry relative="1" as="geometry" />
        </mxCell>
        <mxCell id="p0b-y2tVaeS5qUjQDXH8-28" style="edgeStyle=orthogonalEdgeStyle;rounded=0;orthogonalLoop=1;jettySize=auto;html=1;exitX=0;exitY=0.75;exitDx=0;exitDy=0;entryX=0.5;entryY=0;entryDx=0;entryDy=0;endArrow=none;endFill=0;" edge="1" parent="1" source="p0b-y2tVaeS5qUjQDXH8-25" target="p0b-y2tVaeS5qUjQDXH8-12">
          <mxGeometry relative="1" as="geometry" />
        </mxCell>
        <mxCell id="p0b-y2tVaeS5qUjQDXH8-29" style="edgeStyle=orthogonalEdgeStyle;rounded=0;orthogonalLoop=1;jettySize=auto;html=1;exitX=0.5;exitY=1;exitDx=0;exitDy=0;endArrow=none;endFill=0;" edge="1" parent="1" source="p0b-y2tVaeS5qUjQDXH8-25" target="p0b-y2tVaeS5qUjQDXH8-13">
          <mxGeometry relative="1" as="geometry" />
        </mxCell>
        <mxCell id="p0b-y2tVaeS5qUjQDXH8-30" style="edgeStyle=orthogonalEdgeStyle;rounded=0;orthogonalLoop=1;jettySize=auto;html=1;exitX=1;exitY=0.5;exitDx=0;exitDy=0;entryX=0.489;entryY=1.002;entryDx=0;entryDy=0;entryPerimeter=0;endArrow=none;endFill=0;shape=link;" edge="1" parent="1" source="p0b-y2tVaeS5qUjQDXH8-25" target="p0b-y2tVaeS5qUjQDXH8-6">
          <mxGeometry relative="1" as="geometry" />
        </mxCell>
        <mxCell id="p0b-y2tVaeS5qUjQDXH8-25" value="ISA" style="triangle;whiteSpace=wrap;html=1;flipV=1;direction=north;" vertex="1" parent="1">
          <mxGeometry x="280" y="270" width="80" height="60" as="geometry" />
        </mxCell>
        <mxCell id="p0b-y2tVaeS5qUjQDXH8-31" value="Asumsi:&#xa;Pada satu waktu, satu kendaraan hanya bisa dipinjam oleh satu pelanggan" style="text;strokeColor=none;fillColor=none;spacingLeft=4;spacingRight=4;overflow=hidden;rotatable=0;points=[[0,0.5],[1,0.5]];portConstraint=eastwest;fontSize=12;" vertex="1" parent="1">
          <mxGeometry x="40" y="450" width="540" height="30" as="geometry" />
        </mxCell>
      </root>
    </mxGraphModel>
  </diagram>
</mxfile>
